<?xml version="1.0" encoding="UTF-8" standalone="no"?>
<!-- Created with Inkscape (http://www.inkscape.org/) -->
<svg
   xmlns:dc="http://purl.org/dc/elements/1.1/"
   xmlns:cc="http://web.resource.org/cc/"
   xmlns:rdf="http://www.w3.org/1999/02/22-rdf-syntax-ns#"
   xmlns:svg="http://www.w3.org/2000/svg"
   xmlns="http://www.w3.org/2000/svg"
   xmlns:xlink="http://www.w3.org/1999/xlink"
   xmlns:sodipodi="http://sodipodi.sourceforge.net/DTD/sodipodi-0.dtd"
   xmlns:inkscape="http://www.inkscape.org/namespaces/inkscape"
   width="635.95032"
   height="741.93256"
   id="svg5087"
   sodipodi:version="0.32"
   inkscape:version="0.45"
   version="1.0"
   sodipodi:docname="Gioppino_Basketball_rim.svg"
   sodipodi:docbase="/home/evans/Desktop"
   inkscape:output_extension="org.inkscape.output.svg.inkscape"
   sodipodi:modified="true">
  <defs
     id="defs5089">
    <linearGradient
       id="linearGradient14069">
      <stop
         style="stop-color:#ff6600;stop-opacity:1;"
         offset="0"
         id="stop14071" />
      <stop
         style="stop-color:#a84f13;stop-opacity:1;"
         offset="1"
         id="stop14073" />
    </linearGradient>
    <radialGradient
       inkscape:collect="always"
       xlink:href="#linearGradient14069"
       id="radialGradient14075"
       cx="292.3681"
       cy="594.04956"
       fx="292.3681"
       fy="594.04956"
       r="83.99205"
       gradientTransform="matrix(2.3022057,1.7123738,-2.0509995,2.7574718,697.87714,-1724.5734)"
       gradientUnits="userSpaceOnUse" />
  </defs>
  <sodipodi:namedview
     id="base"
     pagecolor="#ffffff"
     bordercolor="#666666"
     borderopacity="1.0"
     inkscape:pageopacity="0.0"
     inkscape:pageshadow="2"
     inkscape:zoom="0.49497475"
     inkscape:cx="375"
     inkscape:cy="276.52873"
     inkscape:document-units="px"
     inkscape:current-layer="layer2"
     inkscape:window-width="1012"
     inkscape:window-height="684"
     inkscape:window-x="0"
     inkscape:window-y="25"
     inkscape:showpageshadow="false" />
  <metadata
     id="metadata5092">
    <rdf:RDF>
      <cc:Work
         rdf:about="">
        <dc:format>image/svg+xml</dc:format>
        <dc:type
           rdf:resource="http://purl.org/dc/dcmitype/StillImage" />
      </cc:Work>
    </rdf:RDF>
  </metadata>
  <g
     inkscape:groupmode="layer"
     id="layer2"
     inkscape:label="quadro"
     style="display:inline"
     transform="translate(-73.065642,-21.723971)">
    <g
       id="g11070"
       transform="matrix(1.7664849,0,0,1.7664849,-383.68111,-710.48402)">
      <path
         id="path7151"
         d="M 277.85714,635.93361 L 585,414.50504 L 618.57143,640.21933 L 258.57143,834.50504 L 277.85714,635.93361 z "
         style="opacity:1;fill:#fdfdfd;fill-opacity:1;fill-rule:evenodd;stroke:none;stroke-width:1px;stroke-linecap:butt;stroke-linejoin:miter;stroke-opacity:1" />
      <path
         id="path9093"
         d="M 585,414.5 L 277.84375,635.9375 L 258.5625,834.5 L 618.5625,640.21875 L 585,414.5 z M 572.84375,431.65625 L 603.5625,630.21875 L 265,816.65625 L 280.71875,643.0625 L 572.84375,431.65625 z "
         style="opacity:1;fill:#000000;fill-opacity:1;fill-rule:evenodd;stroke:none;stroke-width:1px;stroke-linecap:butt;stroke-linejoin:miter;stroke-opacity:1" />
      <path
         id="path10065"
         d="M 460,597.375 L 360.71875,660.9375 L 358.5625,753.78125 L 463.5625,695.9375 L 460,597.375 z M 450.71875,614.5 L 452.84375,690.21875 L 366.4375,740.21875 L 370,665.9375 L 450.71875,614.5 z "
         style="fill:#000000;fill-opacity:1;fill-rule:evenodd;stroke:#000000;stroke-width:1px;stroke-linecap:butt;stroke-linejoin:miter;stroke-opacity:1" />
    </g>
  </g>
  <g
     inkscape:groupmode="layer"
     id="layer3"
     inkscape:label="cesto"
     style="display:inline"
     transform="translate(-73.065642,-21.723971)">
    <path
       style="fill:#280b0b;fill-opacity:1;fill-rule:nonzero;stroke:#000000;stroke-width:1.76648486;stroke-linecap:butt;stroke-linejoin:round;stroke-miterlimit:4;stroke-opacity:1"
       d="M 273.70363,554.20191 L 303.98623,532.75173 L 353.19545,600.88758 L 296.41559,631.17018 L 273.70363,554.20191 z "
       id="rect14066"
       sodipodi:nodetypes="ccccc" />
    <path
       style="opacity:1;fill:url(#radialGradient14075);fill-opacity:1;fill-rule:nonzero;stroke:none;stroke-width:9.5170002;stroke-linecap:butt;stroke-linejoin:round;stroke-miterlimit:4;stroke-dasharray:none;stroke-opacity:1"
       d="M 194.16449,401.54189 C 180.561,401.47417 167.1081,402.77476 154.25297,405.24047 C 148.49674,406.11073 143.24125,407.26757 138.74102,408.82864 C 112.0546,416.32734 89.219563,429.36793 75.257973,446.91847 L 75.202771,447.02888 C 50.626073,478.03493 61.088344,512.47656 96.787008,535.73954 C 95.263326,541.9109 93.622916,549.12413 93.254038,552.96277 C 197.90767,611.65015 280.72603,561.60244 310.09006,538.83089 L 309.04121,550.42345 L 358.55799,603.03158 L 355.46664,545.06879 L 320.79937,521.33165 L 319.03289,505.37808 C 336.32192,468.20582 308.78288,427.53832 250.85761,409.87749 C 232.59134,404.30831 213.25441,401.63693 194.16449,401.54189 z M 174.12592,418.59951 C 220.94136,418.13583 266.14875,433.06261 266.14875,433.06261 L 267.41841,448.18814 L 309.59323,487.27161 C 308.16581,495.08993 304.50466,502.88026 298.33189,510.34632 C 277.9029,535.05552 235.98663,549.35243 192.56361,549.15379 C 175.57199,549.07606 158.36958,546.78581 142.10838,542.03265 C 84.290788,525.13251 60.414872,483.50467 88.837826,449.12658 L 88.893029,449.07138 C 96.790011,439.55428 107.8938,431.62684 121.02097,425.44464 C 120.94713,426.2813 120.94132,427.15352 121.02097,428.03917 C 137.22252,421.31331 155.80684,418.78097 174.12592,418.59951 z "
       id="path11076" />
  </g>
</svg>
