<svg 
xmlns="http://www.w3.org/2000/svg"
xmlns:xlink="http://www.w3.org/1999/xlink"
xmlns:ev="http://www.w3.org/2001/xml-events"
"width"=500
"height"=500
>

<g xmlns="http://www.w3.org/2000/svg" id="g5391">
      <path id="path3004-3-0" d="M 154.75 77 C 153.63164 77.005175 149.93685 81.06369 147.0625 83.875 C 145.04721 82.279903 143.2313 80.937659 142.46875 81.03125 C 141.80584 81.112612 141.11221 82.950786 140.40625 85.09375 C 138.85551 84.123436 137.25675 83.053198 136.15625 83.3125 C 134.49255 83.704507 128.08983 89.14947 126.53125 89.9375 C 124.6727 90.877198 123.00647 92.427156 121.28125 93.5625 C 119.83448 94.514599 117.8368 96.641527 116.5625 97.78125 C 115.04294 99.140329 106.08926 100.61757 104.625 102.03125 C 103.61887 103.00263 103.14702 109.36541 102.40625 112.40625 C 101.22749 113.91048 96.918378 117.1823 96.25 118.59375 C 95.43135 120.32254 94.512523 128.9558 93.78125 130.71875 C 93.772759 130.73922 93.759163 130.76084 93.75 130.78125 C 91.630121 132.00492 89.047739 133.27199 88.75 134.5 C 88.408178 135.90983 89.159966 137.78304 89.1875 139.34375 C 89.024421 140.01419 88.849387 140.69153 88.75 141.28125 C 87.835565 143.71491 85.669552 147.8434 85.59375 149.5625 C 85.518788 151.26253 85.246782 158.17688 85.34375 159.90625 C 85.373241 160.4322 85.352645 161.26165 85.3125 162.21875 C 85.043596 162.65362 84.880544 163.04691 84.90625 163.34375 C 84.925037 163.5607 85.05584 163.78928 85.25 164 C 85.124547 166.51853 84.960166 169.30353 85.1875 170.5 C 85.504682 172.16934 88.572843 178.73773 89.1875 180.375 C 89.920456 182.32739 90.643771 184.99278 91.5625 186.84375 C 92.332946 188.39597 96.721394 189.22333 97.6875 190.65625 C 98.839546 192.36496 103.39065 203.7371 104.75 205.25 C 105.88995 206.51872 113.68501 205.72508 114.96875 206.8125 C 116.49956 208.10921 114.3179 213.45653 115.96875 214.71875 C 116.80928 215.36141 120.92499 214.84672 124.40625 214.5 C 125.16027 217.47276 125.93266 220.32456 126.75 220.75 C 127.35846 221.06671 129.13121 220.20066 131.09375 219.125 C 131.35363 220.22063 131.70588 221.15481 132.40625 221.40625 C 133.98732 221.97388 141.89873 222.68389 143.59375 223.03125 C 145.615 223.44546 152.79863 227.63054 154.8125 227.875 C 156.50133 228.08 159.70904 223.90738 161.40625 223.71875 C 163.43011 223.49381 167.82385 228.64793 169.8125 228.40625 C 170.88517 228.27589 172.41507 223.98875 173.78125 220.8125 C 176.42234 220.25245 179.05262 219.66532 180 219.375 C 180.67263 219.16887 181.6843 218.42448 182.71875 217.625 C 186.47269 217.87407 190.44357 218.13568 191.4375 217.65625 C 192.95385 216.92482 193.9437 216.30812 195.40625 215.46875 C 197.15029 214.46783 199.60108 212.60386 201.1875 211.375 C 202.51787 210.34448 208.09597 201.39763 209.21875 200.0625 C 210.55762 198.4704 216.11522 199.90267 217.25 198.21875 C 218.20163 196.80662 217.62959 192.00096 218.375 190.46875 C 218.63285 189.93872 219.41008 188.84197 220.3125 187.5625 C 221.4794 186.50648 222.48047 185.54111 222.8125 185 C 222.96642 184.74916 222.86974 184.52115 222.59375 184.3125 C 224.2997 181.92369 225.97382 179.57428 226.3125 178.65625 C 226.69676 177.61466 226.31006 174.8332 226.125 172.53125 C 226.53546 172.06735 226.83167 171.62805 226.90625 171.34375 C 227.04627 170.81002 226.7363 170.02985 226.3125 169.15625 C 227.03642 167.42975 228.70181 166.14989 229.03125 164.28125 C 229.24504 163.06858 227.13949 161.03205 225.90625 159.34375 C 226.78077 157.21202 227.77445 154.91768 228.46875 153.09375 C 231.0751 150.43437 234.20253 147.46422 234.125 146.28125 C 234.03904 144.96972 228.51227 139.88677 225.78125 136.84375 C 225.61028 135.16818 225.42633 133.74137 225.3125 133.1875 C 225.19151 132.59875 224.74744 132.30659 224.21875 132.09375 C 224.37171 130.38157 224.66453 128.54033 224.15625 127.375 C 223.80666 126.57348 222.55082 125.83016 221.34375 125.0625 C 221.29508 122.45682 221.25763 119.8038 220.84375 118.90625 C 220.67087 118.53133 219.92068 118.29743 218.90625 118.125 C 219.40149 114.46068 220.22854 109.9438 219.53125 108.84375 C 218.65935 107.46825 210.25063 107.72896 208.21875 106.75 C 208.07319 106.0598 207.89218 105.47224 207.65625 105.1875 C 207.50259 105.00204 207.28227 104.87384 207.03125 104.78125 C 205.99885 101.81383 205.08207 96.404203 203.8125 95.40625 C 203.08709 94.836036 201.05962 95.172939 199.125 95.46875 C 198.70399 93.628994 198.24009 92.109457 197.65625 91.75 C 196.98524 91.336877 194.32067 91.294324 191.53125 91.28125 C 190.94224 90.60602 190.32786 90.032491 189.75 89.71875 C 188.73313 89.166655 185.93207 89.793925 183.65625 90.125 C 182.61542 88.449622 182.34931 84.992247 180.8125 84.53125 C 180.21377 84.351647 178.64987 84.882821 176.84375 85.59375 C 175.65234 83.971941 174.47826 82.479746 173.59375 82.25 C 171.92676 81.817008 164.81948 83.998655 163.125 83.90625 C 161.10439 83.796061 156.75677 76.990713 154.75 77 z " style="opacity:1;color:#000000;fill:#0b7c0b;fill-opacity:1;fill-rule:nonzero;stroke:#000000;stroke-width:3;marker:none;visibility:visible;display:inline;overflow:visible;enable-background:accumulate;stroke-opacity:1;stroke-miterlimit:4;stroke-dasharray:none"/>
      <path transform="matrix(0.76054502,0,0,0.76054502,70.292565,30.281763)" inkscape:transform-center-y="-1.7993952" xmlns:inkscape="http://www.inkscape.org/namespaces/inkscape" inkscape:transform-center-x="3.5790771" d="m 193.45586,135.9606 c 0.82945,1.90863 -4.22862,3.58601 -3.70136,5.5522 0.4851,1.80896 4.13758,6.36296 4.42778,8.22271 0.31543,2.0214 3.30655,12.62888 3.22674,14.69564 -0.0734,1.9015 -1.45639,10.26245 -1.73605,12.13658 -0.30397,2.03702 -4.29025,4.36124 -4.9105,6.31583 -0.57064,1.79829 0.65337,9.79916 -0.18529,11.51038 -0.91155,1.85997 -5.50961,4.03702 -6.4388,5.82722 -0.85487,1.64704 0.44191,7.82263 -0.58141,9.35023 -1.11226,1.66038 -8.55468,2.97782 -9.99332,4.40137 -1.32359,1.30971 -3.87099,9.702 -5.33854,10.86275 -1.5951,1.26163 -6.72509,1.93585 -8.41433,3.08349 -1.55415,1.05587 -5.83017,7.36062 -7.55086,8.13102 -1.87025,0.83736 -10.89472,4.08132 -12.8414,4.71383 -1.79101,0.58192 -5.97533,-2.22425 -7.82792,-1.98881 -2.01362,0.25591 -8.60442,5.26952 -10.66784,5.29693 -1.89842,0.0252 -7.37804,-2.27556 -9.20342,-2.50196 -1.98404,-0.24607 -12.810616,0.97794 -14.786666,0.53892 -1.818029,-0.40392 -7.204253,-2.31702 -8.955589,-2.86856 -1.903561,-0.59948 -4.244227,-2.21229 -6.097965,-3.03416 -1.705498,-0.75614 -7.665671,-4.54822 -9.242119,-5.55583 -1.713472,-1.09519 -9.09027,-7.50983 -10.702864,-8.72188 -1.483638,-1.11512 -2.409508,-0.2319 -3.6855,-1.56542 -1.3869,-1.44942 -4.879846,-9.93169 -5.970677,-11.68044 -1.003599,-1.6089 -7.606005,-8.77222 -8.499094,-10.43969 -0.970716,-1.81239 -0.706368,-5.8804 -1.326504,-7.85052 -0.570545,-1.81258 -6.620847,-8.51785 -6.979738,-10.36395 -0.390084,-2.00656 5.115591,-10.062 4.884303,-12.06474 -0.212793,-1.84259 -7.353746,-3.65667 -7.267374,-5.54103 0.09388,-2.04813 2.476679,-10.21806 2.644944,-12.23654 0.154809,-1.85707 4.961095,-6.72439 5.47069,-8.52461 0.553888,-1.9567 -0.472811,-5.72601 0.367753,-7.5868 0.773346,-1.71199 4.513177,-11.95356 5.421217,-13.62992 0.986966,-1.82206 7.340898,-3.20002 8.483639,-4.88544 1.051359,-1.55063 1.656587,-4.78456 2.955319,-6.11846 1.411616,-1.44984 5.355187,-6.02145 6.944132,-7.22963 1.461879,-1.11157 7.985408,-11.017802 9.594071,-11.997884 1.748487,-1.06527 6.005724,3.756468 7.896574,2.896528 1.739642,-0.791172 8.386376,-10.381797 10.132613,-10.971254 1.898018,-0.640693 8.129695,5.972998 10.154465,5.583747 1.86285,-0.358124 6.53,-5.779557 8.44052,-5.75759 2.07658,0.02388 8.52561,1.596917 10.56122,1.83119 1.87282,0.215538 10.51441,-2.346206 12.33869,-2.065187 1.98285,0.305445 7.87262,5.551478 9.80293,6.181574 1.77595,0.579709 2.67771,1.395929 4.32807,2.269039 1.7938,0.948999 10.37601,5.104789 12.01048,6.272194 1.50376,1.07405 5.04923,0.319153 6.39894,1.639648 1.46702,1.435271 5.77902,8.572235 7.2529,10.022455 1.35602,1.33424 6.18681,3.21346 7.20012,4.77643 1.10138,1.69882 1.61047,14.32304 2.66324,16.04208 0.96858,1.58158 8.54066,5.27032 9.30378,7.02632 z" inkscape:randomized="0.043" inkscape:rounded="0.19" inkscape:flatsided="false" sodipodi:arg2="-0.23523106" xmlns:sodipodi="http://sodipodi.sourceforge.net/DTD/sodipodi-0.dtd" sodipodi:arg1="-0.36645148" sodipodi:r2="78.474815" sodipodi:r1="80.930115" sodipodi:cy="162.36218" sodipodi:cx="116" sodipodi:sides="25" id="path3004-3" style="opacity:0.76211452000000002;color:#000000;fill:#064306;fill-opacity:0.25;fill-rule:nonzero;stroke:none;stroke-width:1.91069157000000001;marker:none;visibility:visible;display:inline;overflow:visible;enable-background:accumulate" sodipodi:type="star"/>
    </g>

</svg>
